<?xml version="1.0" standalone="no"?>
<!DOCTYPE svg PUBLIC "-//W3C//DTD SVG 20010904//EN"
 "http://www.w3.org/TR/2001/REC-SVG-20010904/DTD/svg10.dtd">
<svg version="1.0" xmlns="http://www.w3.org/2000/svg"
 width="1408.000000pt" height="1089.000000pt" viewBox="0 0 1408.000000 1089.000000"
 preserveAspectRatio="xMidYMid meet">

<g transform="translate(0.000000,1089.000000) scale(0.100000,-0.100000)"
fill="#000000" stroke="none">
<path d="M7153 10683 c-31 -3 -44 -9 -48 -23 -11 -33 3 -40 81 -40 60 0 76 3
81 16 16 41 -20 56 -114 47z"/>
<path d="M7449 10674 c-9 -11 -10 -20 -2 -32 8 -13 26 -17 84 -17 69 0 74 1
77 22 3 17 -3 26 -23 33 -42 16 -121 12 -136 -6z"/>
<path d="M6865 10663 c-92 -10 -113 -22 -99 -58 4 -11 20 -15 53 -14 77 2 106
12 109 36 4 26 -21 40 -63 36z"/>
<path d="M7790 10655 c-24 -30 0 -49 71 -57 63 -7 89 0 89 27 0 22 -24 33 -85
40 -50 6 -63 4 -75 -10z"/>
<path d="M8129 10614 c-18 -21 -1 -47 37 -55 57 -13 112 -10 118 6 11 30 -6
43 -68 54 -78 14 -71 14 -87 -5z"/>
<path d="M6487 10611 c-45 -9 -60 -22 -55 -47 3 -17 12 -19 67 -16 70 2 94 14
89 46 -3 24 -37 29 -101 17z"/>
<path d="M8465 10553 c-25 -24 -2 -50 58 -63 64 -15 91 -11 95 14 5 26 -5 33
-76 50 -55 13 -64 13 -77 -1z"/>
<path d="M6150 10539 c-44 -13 -63 -31 -55 -51 10 -25 25 -27 95 -9 58 14 65
19 65 41 0 22 -5 25 -35 27 -19 1 -51 -3 -70 -8z"/>
<path d="M8791 10466 c-20 -24 0 -46 58 -62 31 -9 59 -18 62 -20 3 -2 14 2 24
10 32 23 11 52 -53 70 -71 19 -77 20 -91 2z"/>
<path d="M5828 10448 c-49 -17 -58 -23 -58 -44 0 -35 21 -39 86 -17 65 22 85
43 65 67 -16 20 -22 19 -93 -6z"/>
<path d="M9120 10365 c-21 -25 -1 -47 62 -69 61 -22 88 -17 88 14 0 15 -13 26
-46 40 -71 31 -89 33 -104 15z"/>
<path d="M5503 10335 c-39 -18 -53 -29 -53 -45 0 -31 26 -35 88 -13 64 23 83
43 63 67 -18 21 -36 19 -98 -9z"/>
<path d="M9442 10251 c-8 -4 -12 -18 -10 -31 2 -17 18 -28 66 -47 58 -23 65
-24 79 -10 23 23 9 45 -39 66 -65 27 -82 31 -96 22z"/>
<path d="M5185 10202 c-52 -28 -65 -56 -35 -74 11 -7 33 -2 75 19 49 23 60 33
60 53 0 36 -38 37 -100 2z"/>
<path d="M9752 10111 c-25 -16 -7 -46 43 -73 56 -31 77 -34 94 -14 18 22 4 40
-55 69 -60 30 -63 30 -82 18z"/>
<path d="M4899 10062 c-57 -30 -75 -51 -66 -76 9 -24 35 -20 95 14 40 23 52
36 52 54 0 36 -24 38 -81 8z"/>
<path d="M10044 9945 c-10 -26 2 -41 60 -73 56 -32 80 -33 90 -5 8 21 -7 37
-61 68 -52 28 -81 32 -89 10z"/>
<path d="M4593 9888 c-57 -35 -70 -53 -52 -74 17 -21 35 -17 94 21 56 35 65
51 43 73 -18 18 -28 15 -85 -20z"/>
<path d="M10345 9776 c-27 -20 -11 -48 48 -84 58 -35 87 -34 87 3 0 15 -13 31
-37 47 -69 45 -79 48 -98 34z"/>
<path d="M2960 9744 c-95 -20 -201 -76 -275 -145 -74 -70 -117 -133 -154 -227
l-26 -67 -70 -1 c-139 -2 -255 -77 -317 -202 -30 -60 -33 -75 -33 -157 0 -78
4 -98 28 -151 34 -73 101 -142 177 -181 l55 -28 800 -3 c788 -3 801 -2 865 18
137 44 250 157 291 291 27 89 23 215 -9 299 -43 110 -141 208 -252 252 -113
45 -277 34 -379 -24 -18 -10 -35 -18 -36 -16 -1 2 -15 28 -31 58 -71 135 -233
251 -396 284 -92 19 -151 19 -238 0z m287 -85 c133 -44 235 -135 304 -271 22
-43 45 -78 53 -78 7 0 39 15 70 34 193 116 441 46 538 -152 31 -62 33 -74 33
-167 0 -90 -3 -106 -29 -160 -38 -76 -105 -143 -181 -181 l-60 -29 -789 -3
c-910 -3 -851 -8 -948 88 -86 86 -110 191 -68 303 27 73 79 130 148 164 50 25
68 28 151 28 l94 0 22 70 c31 100 57 146 126 220 70 75 185 138 279 154 75 13
182 5 257 -20z"/>
<path d="M4309 9696 c-25 -19 -49 -41 -52 -50 -6 -14 16 -46 30 -46 4 0 30 18
60 41 41 30 53 46 51 62 -5 34 -38 31 -89 -7z"/>
<path d="M10622 9578 c-20 -20 -14 -35 37 -77 52 -44 72 -49 91 -27 15 20 5
36 -50 80 -49 39 -60 42 -78 24z"/>
<path d="M8121 9541 c-14 -25 -14 -231 -1 -266 7 -20 16 -26 33 -23 22 3 22 5
22 153 0 147 -1 150 -22 153 -14 2 -26 -4 -32 -17z"/>
<path d="M7776 9404 c-22 -21 -14 -33 97 -142 85 -83 98 -92 116 -82 12 6 21
18 21 26 0 15 -196 214 -211 214 -4 0 -15 -7 -23 -16z"/>
<path d="M8389 9323 c-55 -53 -99 -104 -99 -113 0 -18 19 -40 33 -40 6 0 54
44 108 97 66 64 99 104 99 119 0 19 -17 34 -37 34 -3 0 -50 -44 -104 -97z"/>
<path d="M10876 9355 c-8 -23 1 -38 50 -79 80 -67 116 -25 43 50 -44 45 -82
57 -93 29z"/>
<path d="M6850 9308 c-49 -34 -72 -71 -77 -125 -6 -66 28 -130 85 -158 l41
-20 1 -352 0 -353 -1803 0 c-1389 0 -1806 -3 -1815 -12 -9 -9 -12 -143 -12
-540 l0 -528 -27 -11 c-92 -34 -134 -161 -80 -240 70 -105 206 -108 281 -6 16
22 21 43 21 90 0 74 -25 116 -86 147 l-39 20 0 505 0 505 1780 0 1780 0 0
-278 c0 -203 3 -281 12 -290 9 -9 243 -12 990 -12 l978 0 0 -888 0 -888 -35
-13 c-83 -30 -123 -157 -73 -230 77 -112 209 -112 286 0 50 73 10 200 -73 230
l-35 13 0 888 0 888 835 0 835 0 0 -284 0 -284 -30 -12 c-73 -30 -116 -126
-90 -204 17 -52 79 -103 134 -111 83 -13 167 46 186 128 17 76 -18 148 -88
182 l-41 20 -1 306 c0 223 -3 308 -12 317 -9 9 -216 12 -870 12 l-858 0 0 278
c0 203 -3 281 -12 290 -9 9 -243 12 -990 12 l-978 0 0 350 c0 325 1 351 18
357 33 12 82 54 98 85 23 45 15 134 -16 175 -47 65 -155 85 -220 41z m130 -53
c28 -14 60 -60 60 -85 0 -7 -7 -27 -15 -45 -44 -92 -186 -60 -185 42 1 44 15
66 56 88 36 19 48 19 84 0z m1900 -1280 l0 -255 -955 0 -955 0 0 255 0 255
955 0 955 0 0 -255z m-5509 -854 c33 -34 40 -91 14 -128 -41 -59 -142 -46
-171 22 -42 100 80 183 157 106z m7351 -130 c27 -24 33 -36 33 -71 0 -35 -6
-47 -34 -72 -29 -26 -39 -30 -75 -25 -123 17 -108 195 16 197 17 0 41 -12 60
-29z m-1743 -1207 c26 -21 31 -33 31 -68 0 -49 -18 -79 -59 -96 -66 -27 -131
20 -131 94 0 37 5 48 31 70 19 17 43 26 64 26 21 0 45 -9 64 -26z"/>
<path d="M11132 9128 c-21 -21 -13 -43 32 -87 80 -78 120 -30 43 52 -46 50
-56 54 -75 35z"/>
<path d="M7630 9055 c-6 -8 -9 -23 -5 -35 6 -19 14 -20 150 -20 132 0 145 2
155 19 7 15 6 23 -6 35 -22 22 -275 23 -294 1z"/>
<path d="M8369 9054 c-9 -11 -10 -20 -2 -32 9 -15 31 -17 153 -17 122 0 144 2
153 17 8 12 7 21 -2 32 -11 13 -38 16 -151 16 -113 0 -140 -3 -151 -16z"/>
<path d="M7856 8791 c-87 -89 -96 -102 -86 -120 6 -12 19 -21 28 -21 27 0 216
196 208 216 -3 8 -6 18 -6 20 0 2 -10 4 -23 4 -16 0 -53 -30 -121 -99z"/>
<path d="M8297 8883 c-18 -18 1 -46 92 -137 101 -100 132 -116 139 -69 3 17
-20 45 -94 118 -89 87 -119 106 -137 88z"/>
<path d="M11350 8865 c-13 -16 -10 -23 38 -83 25 -30 42 -42 56 -40 34 5 30
40 -10 91 -38 48 -62 58 -84 32z"/>
<path d="M8120 8799 c-8 -14 -11 -65 -8 -151 3 -137 11 -158 50 -137 17 9 18
23 16 157 -3 142 -4 147 -25 150 -14 2 -26 -4 -33 -19z"/>
<path d="M11557 8603 c-14 -14 -6 -40 29 -91 27 -41 40 -52 57 -50 34 5 32 35
-7 94 -33 50 -61 66 -79 47z"/>
<path d="M11733 8304 c-4 -11 5 -39 23 -73 23 -45 34 -56 54 -56 35 0 36 29 2
90 -29 54 -66 72 -79 39z"/>
<path d="M11892 8008 c-17 -17 -15 -30 13 -93 21 -47 28 -56 47 -53 31 4 34
33 8 93 -27 63 -45 76 -68 53z"/>
<path d="M4658 7329 c-2 -280 0 -417 8 -427 6 -8 19 -12 30 -10 18 3 19 16 19
423 l0 420 -27 3 -28 3 -2 -412z"/>
<path d="M2247 7653 c-17 -17 -2 -43 65 -110 l72 -73 -73 -74 c-74 -75 -83
-98 -45 -113 11 -4 38 17 90 68 l74 73 74 -73 c77 -77 108 -88 114 -42 3 18
-13 40 -67 95 l-71 72 70 69 c48 48 70 76 68 90 -6 41 -39 29 -112 -44 l-72
-71 -69 70 c-64 65 -99 83 -118 63z"/>
<path d="M12038 7570 c-111 -19 -220 -91 -285 -188 l-39 -58 -45 20 c-69 31
-197 29 -269 -5 -220 -104 -261 -389 -80 -552 93 -84 69 -81 714 -85 660 -3
644 -5 732 83 113 112 112 278 -3 386 -53 51 -97 71 -170 77 -40 3 -63 9 -63
17 0 34 -66 137 -120 189 -69 66 -138 101 -230 115 -72 12 -75 12 -142 1z
m167 -75 c114 -30 214 -119 250 -222 34 -98 31 -96 117 -97 68 -1 81 -4 119
-31 63 -44 91 -105 87 -181 -5 -82 -38 -132 -109 -168 l-53 -26 -555 0 c-348
0 -570 4 -593 10 -140 39 -225 191 -185 331 51 172 255 243 408 142 45 -30 62
-23 84 32 21 56 94 137 153 172 88 52 176 64 277 38z"/>
<path d="M4470 7330 c-7 -12 -9 -93 -8 -221 3 -173 5 -203 19 -212 9 -6 24 -7
33 -4 14 6 16 31 16 220 0 214 -4 237 -37 237 -7 0 -17 -9 -23 -20z"/>
<path d="M4851 7336 c-8 -9 -11 -78 -9 -227 l3 -214 24 -3 c13 -2 28 2 32 10
14 22 11 422 -3 436 -16 16 -33 15 -47 -2z"/>
<path d="M7583 7343 c-10 -3 -13 -76 -13 -313 0 -323 2 -340 44 -324 15 6 16
37 14 322 -3 332 -3 333 -45 315z"/>
<path d="M9904 7257 c-2 -7 -3 -116 -2 -242 l3 -230 24 -3 c13 -2 28 2 32 10
10 15 12 438 3 462 -7 19 -53 21 -60 3z"/>
<path d="M7164 7207 c-2 -7 -3 -109 -2 -226 3 -190 5 -215 20 -225 12 -7 21
-7 28 0 12 12 17 435 5 453 -9 15 -45 14 -51 -2z"/>
<path d="M10280 7125 c-11 -28 -14 -285 -4 -323 5 -18 13 -22 33 -20 l26 3 0
180 c0 179 0 180 -22 183 -17 3 -26 -3 -33 -23z"/>
<path d="M7361 7046 c-8 -9 -11 -57 -9 -146 3 -111 6 -135 20 -143 12 -8 21
-7 32 2 13 11 16 37 16 145 0 130 -6 156 -36 156 -6 0 -17 -6 -23 -14z"/>
<path d="M10101 7006 c-8 -9 -11 -50 -9 -117 3 -101 4 -104 27 -107 13 -2 28
2 32 10 14 21 11 202 -3 216 -16 16 -33 15 -47 -2z"/>
<path d="M6874 6690 c-179 -20 -309 -57 -459 -130 -471 -228 -712 -754 -744
-1623 -34 -928 150 -1557 555 -1895 118 -98 227 -157 384 -206 151 -48 248
-60 470 -59 179 1 220 4 320 26 325 70 563 224 729 471 221 328 324 789 324
1451 -1 371 -24 596 -88 862 -150 619 -484 980 -1005 1084 -109 22 -375 32
-486 19z m445 -117 c355 -57 629 -262 798 -597 109 -216 168 -430 215 -786 21
-155 17 -809 -5 -985 -75 -580 -247 -938 -547 -1139 -194 -130 -421 -190 -720
-189 -363 0 -626 98 -841 312 -299 297 -449 815 -449 1545 0 1029 264 1603
824 1791 211 71 476 88 725 48z"/>
<path d="M6932 5864 c-130 -65 -198 -213 -239 -520 -15 -117 -18 -212 -18
-609 0 -501 6 -597 50 -798 31 -139 73 -224 142 -287 145 -133 353 -94 459 86
78 132 115 373 129 834 7 233 -7 607 -30 785 -37 291 -110 446 -237 509 -42
21 -66 26 -128 26 -62 0 -86 -5 -128 -26z m226 -101 c138 -102 192 -391 192
-1033 0 -659 -58 -956 -200 -1031 -46 -25 -134 -25 -180 0 -152 80 -209 418
-197 1156 8 462 35 673 101 803 27 52 78 105 116 121 40 17 136 8 168 -16z"/>
<path d="M4017 6543 c-41 -60 -289 -423 -552 -808 -263 -385 -555 -812 -650
-950 -94 -137 -199 -291 -233 -341 l-62 -91 0 -406 0 -407 740 0 740 0 0 -360
0 -360 548 2 547 3 3 357 2 358 203 2 202 3 3 423 2 422 -205 0 -205 0 -2
1128 -3 1127 -502 3 -502 2 -74 -107z m973 -1128 l0 -1125 205 0 205 0 0 -326
0 -325 -192 1 c-106 1 -199 1 -205 1 -10 -1 -13 -80 -13 -361 l0 -360 -442 2
-443 3 -3 360 -2 360 -740 -3 -740 -2 0 338 0 338 78 115 c43 63 382 557 752
1099 370 542 677 991 683 998 7 9 106 12 433 12 l424 0 0 -1125z"/>
<path d="M4017 5374 c-3 -3 -38 -72 -78 -152 -54 -111 -135 -241 -327 -527
-140 -209 -257 -386 -259 -392 -4 -10 74 -13 371 -13 l376 0 0 243 c0 355 18
752 36 795 7 19 14 38 14 43 0 10 -123 13 -133 3z m-15 -615 l-4 -356 -106 -7
c-187 -11 -355 -8 -349 7 3 7 92 144 199 303 107 159 210 317 228 351 19 34
35 61 35 60 1 -1 -1 -162 -3 -358z"/>
<path d="M10097 6498 c-58 -84 -411 -601 -786 -1148 l-681 -995 0 -407 0 -408
740 0 740 0 0 -360 0 -360 548 2 547 3 3 357 2 358 203 2 202 3 3 423 2 422
-205 0 -205 0 -2 1128 -3 1127 -502 3 -502 2 -104 -152z m1003 -1083 l0 -1125
205 0 205 0 0 -325 0 -325 -205 0 -205 0 0 -360 0 -360 -442 2 -443 3 -5 360
-5 360 -735 0 -735 0 -3 336 -2 335 526 770 c289 423 632 923 761 1112 l234
342 425 0 424 0 0 -1125z"/>
<path d="M10127 5374 c-3 -3 -38 -72 -78 -152 -54 -111 -135 -241 -327 -527
-140 -209 -257 -386 -259 -392 -4 -10 74 -13 371 -13 l376 0 0 238 c0 357 18
757 35 800 8 19 15 38 15 43 0 10 -123 13 -133 3z m-15 -615 l-4 -356 -106 -7
c-183 -11 -355 -8 -349 7 2 6 96 149 209 317 112 168 214 326 228 352 13 26
25 46 25 45 1 -1 -1 -162 -3 -358z"/>
<path d="M584 6595 c-4 -8 -4 -22 0 -30 5 -13 67 -15 475 -15 407 0 470 2 475
15 3 8 3 22 0 30 -5 13 -68 15 -475 15 -408 0 -470 -2 -475 -15z"/>
<path d="M1714 6595 c-4 -8 -4 -22 0 -30 5 -13 121 -15 964 -15 841 0 961 2
972 15 10 12 10 18 0 30 -11 13 -131 15 -972 15 -843 0 -959 -2 -964 -15z"/>
<path d="M12197 6213 c-13 -12 -8 -378 5 -391 16 -16 23 -15 42 4 13 13 16 45
16 189 0 95 -3 180 -6 189 -6 16 -45 22 -57 9z"/>
<path d="M141 6196 c-15 -18 -4 -45 23 -51 11 -3 70 -5 130 -3 87 2 111 6 119
19 6 9 7 24 4 33 -5 14 -25 16 -135 16 -98 0 -132 -3 -141 -14z"/>
<path d="M583 6194 c-3 -9 -2 -24 4 -33 9 -15 131 -16 1365 -19 1168 -2 1357
0 1374 12 15 12 17 18 8 33 -11 17 -72 18 -1378 21 -1259 2 -1367 1 -1373 -14z"/>
<path d="M11706 6004 c-9 -24 4 -40 131 -165 132 -129 135 -131 157 -123 38
14 15 50 -112 177 -126 126 -162 148 -176 111z"/>
<path d="M12557 5891 c-130 -131 -142 -151 -105 -175 15 -9 38 9 153 124 141
140 159 172 105 178 -21 2 -48 -21 -153 -127z"/>
<path d="M859 5774 c-9 -11 -10 -20 -2 -32 9 -16 73 -17 764 -20 415 -1 764 0
777 3 24 6 29 34 10 53 -9 9 -195 12 -774 12 -683 0 -763 -2 -775 -16z"/>
<path d="M2726 5774 c-12 -12 -13 -20 -6 -35 10 -18 21 -19 193 -17 l182 3 3
24 c2 13 -2 28 -10 32 -7 5 -88 9 -180 9 -138 0 -169 -3 -182 -16z"/>
<path d="M11509 5524 c-9 -11 -10 -20 -2 -32 9 -15 34 -17 204 -17 l194 0 0
30 0 30 -191 3 c-165 2 -193 0 -205 -14z"/>
<path d="M12539 5524 c-9 -11 -10 -20 -2 -32 9 -15 35 -17 193 -20 126 -2 187
1 196 9 19 15 18 45 -2 53 -9 3 -96 6 -194 6 -150 0 -180 -2 -191 -16z"/>
<path d="M11843 5178 c-69 -68 -129 -131 -134 -141 -12 -22 4 -47 30 -47 25 0
271 251 271 277 0 18 -17 33 -37 33 -4 0 -62 -55 -130 -122z"/>
<path d="M12440 5285 c-6 -8 -9 -22 -6 -32 3 -10 62 -73 130 -141 98 -96 130
-123 148 -120 51 7 33 38 -103 174 -74 74 -139 134 -145 134 -6 0 -17 -7 -24
-15z"/>
<path d="M12202 5188 c-8 -8 -12 -67 -12 -200 0 -165 2 -189 16 -195 9 -3 24
-2 33 4 14 9 16 37 19 187 2 175 -3 216 -31 216 -7 0 -18 -5 -25 -12z"/>
<path d="M1366 5177 c-46 -14 -67 -40 -48 -59 9 -9 24 -10 69 0 68 14 93 33
73 56 -15 19 -40 19 -94 3z"/>
<path d="M1090 5024 c-43 -39 -51 -76 -17 -82 24 -5 102 67 102 93 0 35 -39
30 -85 -11z"/>
<path d="M891 4783 c-34 -53 -38 -75 -18 -92 17 -14 34 0 71 58 21 33 26 49
19 60 -20 31 -41 23 -72 -26z"/>
<path d="M780 4540 c-21 -13 -50 -112 -39 -132 11 -21 34 -24 46 -5 17 26 42
109 37 122 -7 18 -28 25 -44 15z"/>
<path d="M1375 4399 c-6 -9 -8 -86 -5 -275 0 -26 27 -39 47 -23 11 9 13 42 11
158 -3 141 -4 146 -25 149 -11 2 -24 -2 -28 -9z"/>
<path d="M1033 4263 c-7 -3 -13 -15 -13 -27 0 -30 192 -221 214 -213 40 16 29
39 -65 134 -99 100 -116 113 -136 106z"/>
<path d="M1638 4171 c-100 -101 -112 -122 -76 -145 15 -9 33 4 118 89 55 55
100 107 100 117 0 9 -9 22 -21 28 -19 10 -31 1 -121 -89z"/>
<path d="M692 4228 c-6 -7 -14 -41 -17 -74 -6 -51 -5 -62 9 -67 9 -4 23 -4 31
-1 15 6 29 73 23 120 -3 31 -28 43 -46 22z"/>
<path d="M12521 4052 c-8 -16 3 -31 65 -93 l74 -74 -71 -71 c-54 -55 -70 -77
-67 -95 6 -46 37 -35 114 42 l74 73 74 -73 c75 -74 98 -83 113 -45 4 11 -17
38 -68 90 l-73 74 73 74 c77 77 88 108 42 114 -18 3 -40 -13 -95 -67 l-72 -71
-69 70 c-71 72 -97 84 -114 52z"/>
<path d="M667 3914 c-9 -9 -9 -106 -1 -128 7 -19 50 -21 56 -3 3 6 2 39 -1 72
-5 51 -9 60 -26 63 -12 2 -24 0 -28 -4z"/>
<path d="M886 3907 c-10 -7 -17 -22 -14 -33 3 -18 14 -19 147 -22 97 -2 148 1
157 9 18 15 18 24 -2 43 -21 21 -260 23 -288 3z"/>
<path d="M1626 3907 c-13 -10 -16 -20 -11 -36 6 -21 10 -21 152 -19 128 3 147
5 157 21 9 15 7 21 -8 33 -27 19 -264 20 -290 1z"/>
<path d="M1108 3642 c-89 -90 -98 -103 -88 -121 6 -12 19 -21 28 -21 10 0 62
45 117 100 85 85 98 103 89 118 -23 36 -45 25 -146 -76z"/>
<path d="M1547 3733 c-18 -18 1 -46 92 -137 68 -67 104 -97 117 -94 43 8 27
40 -72 139 -91 91 -119 110 -137 92z"/>
<path d="M1376 3662 c-4 -6 -10 -239 -7 -283 1 -22 30 -32 47 -18 11 9 14 45
14 154 0 121 -2 144 -16 149 -21 8 -32 8 -38 -2z"/>
<path d="M702 3594 c-13 -23 16 -131 36 -139 8 -3 22 1 30 9 12 12 12 22 2 68
-7 29 -17 59 -23 66 -13 17 -34 15 -45 -4z"/>
<path d="M807 3303 c-24 -23 39 -147 71 -141 24 4 26 40 6 80 -29 58 -58 81
-77 61z"/>
<path d="M11494 3235 c-4 -8 -4 -22 0 -30 5 -13 68 -15 513 -13 l508 3 0 25 0
25 -508 3 c-445 2 -508 0 -513 -13z"/>
<path d="M12634 3235 c-4 -8 -4 -22 0 -30 5 -13 55 -15 393 -13 l388 3 0 25 0
25 -388 3 c-338 2 -388 0 -393 -13z"/>
<path d="M2087 3053 c-17 -17 -2 -43 65 -110 l72 -73 -73 -74 c-51 -52 -72
-79 -68 -90 15 -38 38 -29 113 45 l74 73 74 -73 c77 -77 108 -88 114 -42 3 18
-13 40 -67 95 l-71 72 70 69 c48 48 70 76 68 90 -6 41 -39 29 -112 -44 l-72
-71 -69 70 c-64 65 -99 83 -118 63z"/>
<path d="M986 3034 c-19 -19 -12 -35 37 -82 63 -61 106 -18 45 45 -47 49 -63
56 -82 37z"/>
<path d="M11497 2843 c-4 -3 -7 -17 -7 -29 0 -30 22 -36 124 -32 83 3 106 16
93 52 -5 13 -23 16 -105 16 -54 0 -102 -3 -105 -7z"/>
<path d="M11813 2834 c-3 -9 -2 -24 4 -33 9 -15 107 -16 1064 -19 580 -1 1064
0 1077 3 18 5 23 11 20 33 l-3 27 -1078 3 c-991 2 -1078 1 -1084 -14z"/>
<path d="M1315 2416 c-108 -26 -205 -93 -267 -185 -17 -25 -32 -47 -33 -49 -2
-2 -31 7 -66 19 -208 70 -420 -65 -445 -283 -15 -134 68 -274 198 -334 l63
-29 563 -3 c620 -3 626 -3 710 58 52 38 99 119 108 186 19 154 -111 304 -263
304 -38 0 -53 4 -53 13 0 35 -65 139 -120 191 -111 106 -254 147 -395 112z
m240 -85 c103 -45 178 -133 210 -243 l16 -58 77 0 c92 0 140 -23 185 -87 78
-110 18 -278 -112 -313 -28 -7 -221 -10 -603 -8 l-563 3 -54 30 c-243 135
-149 495 129 495 64 0 139 -24 154 -49 4 -6 18 -11 31 -11 20 0 30 11 51 52
38 74 62 105 117 145 101 74 252 92 362 44z"/>
<path d="M11502 2421 c-8 -4 -12 -19 -10 -32 l3 -24 830 0 830 0 3 24 c2 13
-2 28 -10 32 -17 11 -1629 11 -1646 0z"/>
<path d="M13370 2415 c-6 -8 -10 -22 -8 -32 3 -16 16 -18 142 -18 119 0 140 2
149 17 8 12 7 21 -2 32 -19 22 -262 24 -281 1z"/>
<path d="M2612 2378 c-9 -9 -12 -177 -12 -697 0 -378 4 -692 8 -699 7 -10 876
-12 4313 -10 l4304 3 3 694 c1 504 -1 698 -9 707 -16 19 -8588 21 -8607 2z
m8548 -703 l0 -635 -4240 0 -4240 0 -1 603 c0 331 -2 617 -3 635 l-4 32 4244
0 4244 0 0 -635z"/>
<path d="M7773 2086 c-59 -19 -104 -49 -153 -102 -81 -88 -116 -204 -107 -359
10 -189 102 -326 256 -380 65 -23 207 -20 275 5 155 58 234 182 244 379 8 164
-26 274 -113 365 -70 73 -138 100 -260 103 -64 2 -115 -2 -142 -11z m212 -87
c54 -15 136 -99 159 -165 24 -66 32 -217 16 -285 -34 -144 -126 -228 -250
-229 -89 0 -129 16 -185 73 -71 74 -90 131 -90 277 0 108 2 119 31 181 34 70
88 124 145 145 43 16 123 17 174 3z"/>
<path d="M5210 1665 l0 -425 270 0 270 0 0 50 0 50 -215 0 -215 0 0 150 0 150
200 0 200 0 0 50 0 50 -200 0 -200 0 0 125 0 125 210 0 210 0 0 50 0 50 -265
0 -265 0 0 -425z"/>
<path d="M5940 1665 l0 -426 58 3 57 3 3 178 2 177 80 0 c147 0 169 -19 279
-237 l61 -123 60 0 60 0 -74 148 c-80 159 -111 206 -152 233 l-27 17 41 21
c27 14 51 37 69 68 24 41 28 58 27 123 0 57 -5 85 -22 117 -50 96 -131 123
-364 123 l-158 0 0 -425z m357 308 c92 -43 92 -212 1 -259 -20 -11 -68 -18
-135 -22 l-103 -5 0 152 0 151 101 0 c74 0 110 -5 136 -17z"/>
<path d="M6750 1666 l0 -426 55 0 55 0 0 180 0 180 85 0 c147 0 175 -23 275
-228 l64 -132 64 0 63 0 -81 160 c-61 118 -93 169 -125 199 l-44 40 37 21 c74
42 111 139 92 242 -15 77 -51 125 -118 156 -54 25 -67 27 -239 30 l-183 4 0
-426z m386 282 c23 -26 34 -48 35 -70 5 -146 -36 -181 -206 -182 l-100 -1 -3
148 -3 149 122 -4 121 -3 34 -37z"/>
<path d="M8470 1665 l0 -425 60 0 60 0 0 180 0 180 83 0 c95 0 152 -21 184
-66 11 -16 50 -89 87 -161 l66 -133 60 0 c33 0 60 3 60 6 0 12 -131 262 -161
308 -18 26 -46 56 -62 66 l-30 18 41 21 c72 37 108 114 99 213 -6 70 -32 122
-78 160 -54 43 -132 58 -311 58 l-158 0 0 -425z m359 307 c92 -47 94 -203 3
-255 -24 -14 -60 -21 -137 -25 l-105 -5 0 152 0 151 103 0 c77 0 110 -4 136
-18z"/>
<path d="M12399 1837 c-101 -43 -164 -101 -206 -193 -23 -50 -25 -51 -72 -57
-127 -15 -211 -107 -211 -232 0 -98 51 -176 140 -214 50 -21 57 -22 548 -19
l497 3 54 30 c98 54 160 171 148 277 -22 186 -203 301 -378 241 l-57 -19 -18
33 c-24 46 -92 106 -156 139 -44 23 -69 28 -143 31 -77 3 -98 0 -146 -20z
m257 -72 c62 -27 116 -80 149 -144 13 -27 30 -51 37 -54 7 -2 36 9 64 25 149
83 324 -22 324 -195 0 -74 -54 -156 -125 -188 -37 -17 -76 -19 -525 -19 -473
0 -486 1 -519 21 -69 42 -99 112 -80 185 21 78 89 126 173 123 64 -3 72 2 81
44 25 112 127 207 244 227 62 10 116 2 177 -25z"/>
<path d="M12301 763 c-38 -35 -51 -53 -46 -65 16 -40 55 -27 120 41 24 26 27
35 19 49 -19 29 -38 24 -93 -25z"/>
<path d="M10631 692 c-15 -28 3 -46 71 -71 52 -19 59 -19 73 -5 23 23 15 36
-36 61 -72 35 -96 38 -108 15z"/>
<path d="M12020 596 c-45 -18 -56 -27 -58 -48 -4 -37 20 -41 85 -15 64 26 84
47 64 71 -17 20 -23 19 -91 -8z"/>
<path d="M10954 585 c-12 -29 10 -49 69 -63 67 -17 87 -11 87 22 0 20 -7 27
-37 36 -81 22 -112 24 -119 5z"/>
<path d="M11285 520 c-15 -24 6 -49 48 -55 72 -11 112 -3 115 22 3 17 -3 26
-23 33 -34 13 -132 13 -140 0z"/>
<path d="M11676 521 c-47 -7 -68 -33 -46 -55 12 -12 29 -14 79 -8 70 8 96 27
72 56 -14 16 -36 18 -105 7z"/>
<path d="M4257 513 c-2 -5 -4 -74 -5 -155 -3 -143 -2 -148 18 -148 18 0 20 6
20 75 0 86 20 119 68 113 37 -4 52 -39 52 -120 0 -54 3 -68 15 -68 12 0 15 17
15 90 0 77 -3 93 -20 110 -25 25 -86 27 -112 3 -17 -15 -18 -14 -18 45 0 47
-3 62 -14 62 -8 0 -17 -3 -19 -7z"/>
<path d="M6850 459 c0 -60 -1 -61 -18 -46 -10 10 -35 17 -54 17 -55 0 -88 -44
-88 -117 0 -47 4 -59 29 -84 33 -33 74 -38 109 -13 12 8 22 10 22 5 0 -6 9
-11 20 -11 20 0 20 5 18 152 -3 136 -5 153 -20 156 -16 3 -18 -5 -18 -59z
m-21 -72 c15 -19 25 -72 17 -101 -13 -53 -62 -72 -98 -39 -24 22 -25 109 -1
135 19 21 66 24 82 5z"/>
<path d="M8390 459 c0 -60 -1 -61 -18 -46 -10 10 -35 17 -54 17 -28 0 -42 -7
-63 -32 -24 -29 -27 -38 -23 -92 4 -49 9 -63 32 -83 31 -27 72 -30 104 -7 12
8 22 10 22 5 0 -6 9 -11 20 -11 20 0 20 5 18 152 -3 136 -5 153 -20 156 -16 3
-18 -5 -18 -59z m-16 -81 c27 -38 17 -117 -18 -140 -19 -13 -49 -9 -68 9 -24
22 -25 109 -1 135 23 25 68 23 87 -4z"/>
<path d="M10637 514 c-16 -16 -7 -44 14 -44 15 0 20 5 17 22 -3 22 -19 33 -31
22z"/>
<path d="M3970 485 c0 -11 12 -15 50 -15 l50 0 0 -129 c0 -101 3 -130 14 -134
8 -3 17 -3 20 0 3 4 6 64 6 135 l0 128 55 0 c42 0 55 3 55 15 0 13 -21 15
-125 15 -104 0 -125 -2 -125 -15z"/>
<path d="M6290 460 c0 -20 -5 -30 -15 -30 -8 0 -15 -7 -15 -15 0 -8 7 -15 15
-15 12 0 15 -15 15 -79 0 -93 11 -111 71 -111 28 0 39 4 39 15 0 10 -11 15
-35 15 l-35 0 0 80 0 80 35 0 c24 0 35 5 35 15 0 10 -11 15 -35 15 -32 0 -35
2 -35 30 0 23 -4 30 -20 30 -16 0 -20 -7 -20 -30z"/>
<path d="M9859 483 c-1 -5 0 -18 1 -30 1 -15 -4 -23 -14 -23 -20 0 -21 -26 -1
-34 12 -4 15 -22 14 -81 -1 -91 8 -105 68 -105 54 0 55 22 2 30 l-34 5 -3 78
-3 77 41 0 c29 0 40 4 40 15 0 11 -11 15 -40 15 -38 0 -40 2 -40 30 0 20 -5
30 -15 30 -8 0 -15 -3 -16 -7z"/>
<path d="M10960 460 c0 -20 -5 -30 -15 -30 -8 0 -15 -7 -15 -15 0 -8 7 -15 15
-15 12 0 15 -15 15 -76 0 -99 8 -114 65 -114 33 0 45 4 45 15 0 10 -11 15 -35
15 -26 0 -35 4 -36 18 0 9 -3 45 -5 80 l-4 62 40 0 c29 0 40 4 40 15 0 11 -11
15 -40 15 -27 0 -40 4 -39 13 4 30 -2 47 -16 47 -10 0 -15 -10 -15 -30z"/>
<path d="M4537 406 c-47 -44 -49 -129 -3 -174 41 -42 166 -39 166 4 0 12 -5
14 -17 8 -10 -4 -34 -9 -53 -11 -41 -5 -90 26 -90 58 0 17 8 19 85 19 94 0 97
2 71 65 -17 40 -42 55 -94 55 -27 0 -47 -7 -65 -24z m117 -28 c9 -12 16 -26
16 -30 0 -5 -29 -8 -65 -8 -36 0 -65 3 -65 8 0 25 34 52 65 52 24 0 39 -7 49
-22z"/>
<path d="M4900 320 c0 -91 3 -110 15 -110 12 0 15 14 15 66 0 91 19 124 73
124 17 0 27 5 27 15 0 21 -58 20 -82 -2 -17 -15 -18 -15 -18 0 0 10 -7 17 -15
17 -12 0 -15 -19 -15 -110z"/>
<path d="M5077 404 c-47 -46 -48 -131 -2 -174 42 -39 165 -36 165 5 0 11 -5
13 -26 5 -44 -17 -83 -12 -109 15 -46 45 -35 55 60 55 94 0 97 2 71 65 -17 40
-42 55 -94 55 -29 0 -46 -7 -65 -26z m115 -21 c35 -32 23 -43 -47 -43 -69 0
-78 7 -45 40 24 24 67 26 92 3z"/>
<path d="M5327 412 c-44 -48 -45 -140 -2 -186 27 -29 70 -34 101 -11 30 22 32
19 29 -40 -2 -48 0 -55 16 -55 18 0 19 11 19 156 0 143 -1 155 -17 152 -10 -2
-17 -10 -15 -17 2 -9 -4 -8 -20 3 -30 22 -91 21 -111 -2z m105 -29 c23 -21 25
-99 2 -131 -37 -54 -104 -9 -104 70 0 67 57 102 102 61z"/>
<path d="M5560 356 c0 -114 22 -156 82 -156 13 0 34 7 46 16 12 8 22 10 22 5
0 -6 9 -11 20 -11 19 0 20 7 20 110 0 103 -1 110 -20 110 -18 0 -20 -7 -20
-84 0 -76 -2 -86 -22 -100 -59 -41 -88 -7 -88 102 0 75 -2 82 -20 82 -18 0
-20 -7 -20 -74z"/>
<path d="M5847 406 c-47 -43 -48 -133 -2 -176 44 -41 165 -37 165 5 0 11 -5
12 -26 5 -44 -17 -83 -12 -109 15 -46 45 -35 55 60 55 79 0 85 1 85 20 0 29
-27 78 -49 90 -36 19 -96 12 -124 -14z m115 -23 c35 -32 23 -43 -47 -43 -69 0
-78 7 -45 40 24 24 67 26 92 3z"/>
<path d="M6089 420 c-22 -13 -32 -56 -19 -80 6 -12 33 -26 65 -35 47 -14 55
-20 55 -41 0 -35 -52 -45 -112 -19 -14 5 -18 2 -18 -13 0 -17 9 -22 45 -28 78
-11 125 13 125 65 0 36 -14 47 -79 67 -44 13 -52 18 -49 37 3 20 9 22 61 22
46 0 57 2 55 15 -4 18 -103 26 -129 10z"/>
<path d="M6469 401 c-24 -25 -29 -37 -29 -81 0 -62 11 -85 50 -105 51 -27 140
-17 140 16 0 16 -4 17 -26 9 -61 -23 -124 2 -124 50 0 18 7 20 80 20 79 0 80
0 80 26 0 58 -37 93 -98 94 -35 0 -49 -6 -73 -29z m118 -13 c31 -41 25 -48
-42 -48 -69 0 -79 8 -48 42 19 21 76 24 90 6z"/>
<path d="M7090 275 c0 -148 1 -155 20 -155 18 0 20 7 20 56 0 55 0 55 22 40
70 -49 145 15 136 116 -7 64 -37 98 -89 98 -21 0 -45 -7 -53 -16 -15 -14 -16
-14 -16 0 0 9 -8 16 -20 16 -19 0 -20 -7 -20 -155z m144 103 c23 -33 21 -103
-4 -128 -44 -44 -100 -9 -100 63 0 23 7 53 16 65 20 30 68 30 88 0z"/>
<path d="M7363 423 c-7 -2 -13 -11 -13 -18 0 -10 13 -12 53 -8 42 4 57 2 70
-12 24 -24 21 -35 -10 -35 -47 0 -102 -20 -113 -40 -16 -30 -12 -68 10 -90 24
-24 76 -26 107 -5 18 13 22 13 27 0 3 -8 12 -12 21 -9 11 5 15 22 15 68 0 74
-13 124 -37 142 -17 13 -104 18 -130 7z m127 -122 c0 -61 -102 -99 -110 -41
-6 42 15 58 78 59 25 1 32 -3 32 -18z"/>
<path d="M7632 423 c-55 -22 -53 -185 3 -207 30 -11 78 -6 97 11 17 15 18 15
18 -10 0 -15 -10 -37 -21 -48 -18 -18 -29 -21 -70 -16 -37 5 -49 3 -49 -7 0
-15 30 -26 73 -26 35 0 82 24 92 47 4 10 10 73 13 141 4 119 4 122 -17 122
-13 0 -21 -6 -21 -17 0 -15 -1 -15 -18 0 -18 16 -72 21 -100 10z m98 -38 c21
-25 24 -92 6 -120 -14 -22 -24 -26 -54 -23 -33 3 -38 7 -50 42 -13 42 -2 100
21 110 25 10 65 5 77 -9z"/>
<path d="M7879 401 c-24 -25 -29 -37 -29 -81 0 -62 11 -85 50 -105 51 -27 140
-17 140 16 0 16 -4 17 -26 9 -61 -23 -124 2 -124 50 0 18 7 20 80 20 79 0 80
0 80 26 0 58 -37 93 -98 94 -35 0 -49 -6 -73 -29z m118 -13 c31 -41 25 -48
-42 -48 -69 0 -79 8 -48 42 19 21 76 24 90 6z"/>
<path d="M8516 399 c-21 -25 -26 -41 -26 -86 0 -47 4 -59 29 -84 20 -19 40
-29 60 -29 78 0 117 48 108 134 -6 65 -39 96 -102 96 -36 0 -47 -5 -69 -31z
m118 -21 c9 -12 16 -42 16 -65 0 -72 -56 -107 -100 -63 -26 26 -28 105 -3 132
23 25 68 23 87 -4z"/>
<path d="M8769 401 c-24 -24 -29 -38 -29 -76 0 -82 39 -125 113 -125 51 0 77
11 77 31 0 16 -4 17 -26 9 -61 -23 -124 2 -124 50 0 18 7 20 80 20 79 0 80 0
80 25 0 33 -25 81 -45 89 -9 3 -35 6 -57 6 -30 0 -46 -7 -69 -29z m118 -13
c31 -41 25 -48 -42 -48 -69 0 -79 8 -48 42 19 21 76 24 90 6z"/>
<path d="M9013 415 c-28 -20 -30 -65 -5 -88 9 -8 36 -20 60 -27 47 -12 61 -32
42 -55 -14 -17 -57 -19 -94 -5 -22 8 -26 7 -26 -9 0 -21 26 -31 83 -31 43 0
87 35 87 69 0 25 -43 59 -86 67 -41 8 -61 36 -39 54 10 8 34 11 66 8 42 -4 49
-3 47 11 -5 23 -105 27 -135 6z"/>
<path d="M9350 320 c0 -87 3 -110 14 -110 10 0 15 20 18 81 4 89 19 113 68
107 34 -4 50 -41 50 -120 0 -54 3 -68 15 -68 12 0 15 17 15 90 0 77 -3 93 -20
110 -24 24 -77 26 -108 4 -20 -14 -22 -14 -22 0 0 9 -7 16 -15 16 -12 0 -15
-19 -15 -110z"/>
<path d="M9625 407 c-52 -44 -42 -162 15 -192 46 -24 88 -19 121 14 24 25 29
37 29 81 0 84 -28 119 -97 120 -29 0 -50 -7 -68 -23z m111 -28 c25 -28 24
-101 -1 -129 -23 -26 -59 -26 -85 0 -25 25 -27 95 -4 128 20 28 65 29 90 1z"/>
<path d="M10167 406 c-46 -43 -48 -133 -2 -176 42 -39 165 -36 165 5 0 11 -5
13 -26 5 -44 -17 -83 -12 -109 15 -46 45 -35 55 60 55 94 0 97 2 71 65 -17 40
-42 55 -94 55 -27 0 -47 -7 -65 -24z m115 -23 c35 -32 23 -43 -47 -43 -36 0
-65 3 -65 8 0 4 7 18 16 30 18 27 69 30 96 5z"/>
<path d="M10411 375 l41 -54 -41 -53 c-33 -43 -37 -54 -24 -57 10 -2 31 13 53
39 l36 42 26 -40 c25 -36 68 -63 68 -40 0 5 -16 30 -35 55 -19 25 -35 49 -35
53 0 4 16 28 35 53 40 53 42 57 16 57 -10 0 -31 -18 -47 -41 l-28 -41 -28 34
c-15 18 -28 36 -28 41 0 4 -11 7 -25 7 -25 0 -25 0 16 -55z"/>
<path d="M10630 320 c0 -103 1 -110 20 -110 19 0 20 7 20 110 0 103 -1 110
-20 110 -19 0 -20 -7 -20 -110z"/>
<path d="M10750 410 c-40 -40 -19 -83 50 -104 52 -15 70 -37 51 -60 -15 -18
-57 -21 -95 -6 -22 8 -26 7 -26 -9 0 -36 102 -43 144 -10 51 40 29 91 -50 114
-47 14 -55 19 -52 38 3 20 9 22 61 22 46 0 57 2 55 15 -2 11 -19 16 -60 18
-47 2 -61 -1 -78 -18z"/>
<path d="M11127 254 c-4 -4 -7 -16 -7 -26 0 -13 7 -18 26 -18 21 0 25 4 22 22
-3 23 -27 35 -41 22z"/>
</g>
</svg>
